<?xml version="1.0" encoding="utf-8"?>
<!-- Generator: Adobe Illustrator 18.1.0, SVG Export Plug-In . SVG Version: 6.00 Build 0)  -->
<!DOCTYPE svg PUBLIC "-//W3C//DTD SVG 1.1//EN" "http://www.w3.org/Graphics/SVG/1.1/DTD/svg11.dtd">
<svg version="1.1" id="Layer_1" xmlns="http://www.w3.org/2000/svg" xmlns:xlink="http://www.w3.org/1999/xlink" x="0px" y="0px"
	 viewBox="0 0 389.9 107.5" enable-background="new 0 0 389.9 107.5" xml:space="preserve">
<g>
	<g>
		<path fill="#FFFFFF" d="M55.3,54.7v28.4H40.5V54.3c0-4.2-0.6-7.2-1.9-9.2c-1.3-2-3.3-2.9-6.2-2.9s-5.3,1.1-7.5,3.2
			c-2.2,2.1-3.3,5.2-3.3,9.3v28.4H6.9V30.5h14.7v6c4-4.6,8.7-6.8,13.9-6.8c3.3,0,6.3,1,9,2.9c2.7,2,4.7,4.3,6.1,7.1
			c2-3.2,4.7-5.7,8.2-7.4c3.4-1.8,6.9-2.6,10.3-2.6c6.2,0,11.2,1.8,15,5.5c3.8,3.7,5.7,9,5.7,16v32H75V54.3c0-8.1-3-12.1-8.9-12.1
			c-2.9,0-5.5,1.1-7.6,3.2C56.3,47.5,55.3,50.6,55.3,54.7z"/>
		<path fill="#FFFFFF" d="M155.7,56.8c0,7.6-2.6,14-7.9,19.3c-5.3,5.2-11.9,7.8-19.9,7.8c-8,0-14.6-2.6-19.9-7.8
			c-5.3-5.2-7.9-11.6-7.9-19.3c0-7.6,2.6-14.1,7.9-19.3c5.3-5.2,11.9-7.9,19.9-7.9c8,0,14.6,2.6,19.9,7.9
			C153,42.7,155.7,49.1,155.7,56.8z M114.8,56.8c0,4.3,1.2,7.8,3.7,10.5c2.4,2.7,5.6,4.1,9.4,4.1c3.8,0,6.9-1.4,9.4-4.1
			c2.4-2.7,3.7-6.2,3.7-10.5c0-4.3-1.2-7.8-3.7-10.6c-2.4-2.7-5.6-4.1-9.4-4.1c-3.8,0-6.9,1.4-9.4,4.1S114.8,52.5,114.8,56.8z"/>
		<path fill="#FFFFFF" d="M165.6,42.6V30.5H208v11.4l-25.5,28.9h27v12.2h-45.8V70.9l24.8-28.4H165.6z"/>
		<path fill="#FFFFFF" d="M220.2,60.2v-13H255v13H220.2z"/>
		<path fill="#FFFFFF" d="M282.7,83.1l-20.8-52.7h15.3l13.1,33.2l13.1-33.2h15.3l-20.8,52.7H282.7z"/>
		<path fill="#FFFFFF" d="M353.5,43.4c-4.4,0-7.6,1.5-9.8,4.6c-2.2,3.1-3.2,7.2-3.2,12.3v22.8h-14.7V30.5h14.7v6.9
			c1.9-2.2,4.3-4,7.1-5.5c2.8-1.5,5.7-2.3,8.7-2.3l0.1,13.8H353.5z"/>
	</g>
	<g>
		<path fill="#FFFFFF" d="M374.5,11.9h11.7v28.9H380V17.4h-5.5V11.9z"/>
	</g>
</g>
<g>
</g>
<g>
</g>
<g>
</g>
<g>
</g>
<g>
</g>
<g>
</g>
</svg>
