<?xml version="1.0" encoding="utf-8"?>
<!-- Generator: Adobe Illustrator 18.1.0, SVG Export Plug-In . SVG Version: 6.00 Build 0)  -->
<!DOCTYPE svg PUBLIC "-//W3C//DTD SVG 1.1//EN" "http://www.w3.org/Graphics/SVG/1.1/DTD/svg11.dtd">
<svg version="1.1" id="Layer_1" xmlns="http://www.w3.org/2000/svg" xmlns:xlink="http://www.w3.org/1999/xlink" x="0px" y="0px"
	 viewBox="0 0 298.5 54.3" enable-background="new 0 0 298.5 54.3" xml:space="preserve">
<g>
	<g>
		<path fill="#FFFFFF" d="M48.3,25.1v28.4H33.5V24.7c0-4.2-0.6-7.2-1.9-9.2c-1.3-2-3.3-2.9-6.2-2.9s-5.3,1.1-7.5,3.2
			c-2.2,2.1-3.3,5.2-3.3,9.3v28.4H0V0.9h14.7v6c4-4.6,8.7-6.8,13.9-6.8c3.3,0,6.3,1,9,2.9c2.7,2,4.7,4.3,6.1,7.1
			c2-3.2,4.7-5.7,8.2-7.4C55.3,0.9,58.7,0,62.2,0c6.2,0,11.2,1.8,15,5.5c3.8,3.7,5.7,9,5.7,16v32H68.1V24.7c0-8.1-3-12.1-8.9-12.1
			c-2.9,0-5.5,1.1-7.6,3.2C49.4,17.9,48.3,21,48.3,25.1z"/>
		<path fill="#FFFFFF" d="M146.7,27.2c0,7.6-2.6,14-7.9,19.3c-5.3,5.2-11.9,7.8-19.9,7.8c-8,0-14.6-2.6-19.9-7.8
			c-5.3-5.2-7.9-11.6-7.9-19.3c0-7.6,2.6-14.1,7.9-19.3c5.3-5.2,11.9-7.9,19.9-7.9c8,0,14.6,2.6,19.9,7.9
			C144.1,13.1,146.7,19.6,146.7,27.2z M105.9,27.2c0,4.3,1.2,7.8,3.7,10.5c2.4,2.7,5.6,4.1,9.4,4.1c3.8,0,6.9-1.4,9.4-4.1
			c2.4-2.7,3.7-6.2,3.7-10.5c0-4.3-1.2-7.8-3.7-10.6c-2.4-2.7-5.6-4.1-9.4-4.1c-3.8,0-6.9,1.4-9.4,4.1S105.9,22.9,105.9,27.2z"/>
		<path fill="#FFFFFF" d="M153.6,13V0.9H196v11.4l-25.5,28.9h27v12.2h-45.8V41.4L176.6,13H153.6z"/>
		<path fill="#FFFFFF" d="M223.8,53.5L203,0.8h15.3l13.1,33.2l13.1-33.2h15.3l-20.8,52.7H223.8z"/>
		<path fill="#FFFFFF" d="M295.6,13.8c-4.4,0-7.6,1.5-9.8,4.6c-2.2,3.1-3.2,7.2-3.2,12.3v22.8H268V0.9h14.7v6.9
			c1.9-2.2,4.3-4,7.1-5.5c2.8-1.5,5.7-2.3,8.7-2.3l0.1,13.8H295.6z"/>
	</g>
</g>
<g>
</g>
<g>
</g>
<g>
</g>
<g>
</g>
<g>
</g>
<g>
</g>
</svg>
