<?xml version="1.0" encoding="utf-8"?>
<!-- Generator: Adobe Illustrator 18.1.0, SVG Export Plug-In . SVG Version: 6.00 Build 0)  -->
<!DOCTYPE svg PUBLIC "-//W3C//DTD SVG 1.1//EN" "http://www.w3.org/Graphics/SVG/1.1/DTD/svg11.dtd">
<svg version="1.1" id="Layer_1" xmlns="http://www.w3.org/2000/svg" xmlns:xlink="http://www.w3.org/1999/xlink" x="0px" y="0px"
	 viewBox="0 0 2600 700" enable-background="new 0 0 2600 700" xml:space="preserve">
<g>
	<g>
		<path fill="#FFFFFF" d="M392.3,45.6h137.8v617.5H392.3V420.2H146.7v242.9H8.9V45.6h137.8v258h245.6V45.6z"/>
		<path fill="#FFFFFF" d="M752.7,45.6h137.8v617.5H752.7V45.6z"/>
		<path fill="#FFFFFF" d="M1614.1,250.6c0,98.9-39.2,162.9-117.5,191.7L1653,663.1h-169.6l-136.9-197H1251v197h-137.8V45.6h234.1
			c96,0,164.5,16.2,205.4,48.6C1593.6,126.6,1614.1,178.7,1614.1,250.6z M1448,323.9c17.1-15.3,25.6-39.6,25.6-72.9
			c0-33.3-8.8-56.1-26.5-68.5s-48.6-18.6-92.8-18.6H1251v182.9h100.7C1398.8,346.9,1430.9,339.2,1448,323.9z"/>
		<path fill="#FFFFFF" d="M2310.2,577.9c-62.4,61-139.3,91.4-230.6,91.4c-91.3,0-168.2-30.5-230.6-91.4
			c-62.4-61-93.6-136.8-93.6-227.5c0-90.7,31.2-166.5,93.6-227.5c62.4-61,139.3-91.4,230.6-91.4c91.3,0,168.1,30.5,230.6,91.4
			c62.4,61,93.6,136.8,93.6,227.5C2403.9,441.1,2372.7,516.9,2310.2,577.9z M2263.4,350.8c0-55.1-17.7-102-53-140.9
			c-35.3-38.9-78.8-58.3-130.3-58.3c-51.5,0-95,19.4-130.3,58.3s-53,85.8-53,140.9c0,55.1,17.7,101.9,53,140.5
			c35.3,38.6,78.8,57.9,130.3,57.9c51.5,0,95-19.3,130.3-57.9C2245.7,452.7,2263.4,405.9,2263.4,350.8z"/>
	</g>
	<g>
		<path fill="#FFFFFF" d="M2484.9,20.4h105.7v261.1h-56V70h-49.7V20.4z"/>
	</g>
</g>
<g>
</g>
<g>
</g>
<g>
</g>
<g>
</g>
<g>
</g>
<g>
</g>
</svg>
